<?xml version="1.0" encoding="UTF-8" standalone="no"?><!-- Generator: Gravit.io --><svg xmlns="http://www.w3.org/2000/svg" xmlns:xlink="http://www.w3.org/1999/xlink" style="isolation:isolate" viewBox="0 0 896.761 118.063" width="896.761pt" height="118.063pt"><g><path d=" M 23.906 80.875 L 29.219 80.875 L 29.219 75.562 L 23.906 75.562 L 23.906 80.875 Z  M 45.156 80.875 L 50.469 80.875 L 50.469 75.562 L 45.156 75.562 L 45.156 80.875 Z  M 34.531 80.875 L 39.844 80.875 L 39.844 75.562 L 34.531 75.562 L 34.531 80.875 Z  M 42.5 104.781 C 41.033 104.781 39.844 105.97 39.844 107.437 C 39.844 108.905 41.033 110.094 42.5 110.094 C 43.967 110.094 45.156 108.905 45.156 107.437 C 45.156 106.733 44.876 106.057 44.378 105.559 C 43.88 105.061 43.204 104.781 42.5 104.781 L 42.5 104.781 Z  M 63.75 78.219 L 69.063 78.219 C 70.471 78.219 71.823 77.659 72.819 76.663 C 73.815 75.667 74.375 74.315 74.375 72.906 L 74.375 62.281 C 74.375 60.872 73.815 59.521 72.819 58.525 C 71.823 57.528 70.471 56.969 69.063 56.969 L 63.75 56.969 L 63.75 54.312 C 63.75 48.445 58.993 43.688 53.125 43.688 L 40.176 43.688 L 40.176 36.051 C 40.176 34.4 38.838 33.063 37.187 33.063 C 35.537 33.063 34.199 34.4 34.199 36.051 L 34.199 43.688 L 21.25 43.688 C 15.382 43.688 10.625 48.445 10.625 54.312 L 10.625 56.969 L 5.313 56.969 C 3.904 56.969 2.552 57.528 1.556 58.525 C 0.56 59.521 0 60.872 0 62.281 L 0 72.906 C 0 74.315 0.56 75.667 1.556 76.663 C 2.552 77.659 3.904 78.219 5.313 78.219 L 10.625 78.219 L 10.625 80.875 C 10.627 82.919 11.222 84.919 12.339 86.631 C 5.123 88.297 0.008 94.719 0 102.125 L 0 112.75 C 0 114.159 0.56 115.51 1.556 116.507 C 2.552 117.503 3.904 118.063 5.313 118.062 L 69.063 118.062 C 70.471 118.063 71.823 117.503 72.819 116.507 C 73.815 115.51 74.375 114.159 74.375 112.75 L 74.375 102.125 C 74.367 94.719 69.252 88.297 62.036 86.631 C 63.153 84.919 63.748 82.919 63.75 80.875 L 63.75 78.219 Z  M 63.75 62.281 L 69.063 62.281 L 69.063 72.906 L 63.75 72.906 L 63.75 62.281 Z  M 10.625 72.906 L 5.313 72.906 L 5.313 62.281 L 10.625 62.281 L 10.625 72.906 Z  M 15.938 54.312 C 15.941 51.38 18.317 49.003 21.25 49 L 53.125 49 C 56.058 49.003 58.434 51.38 58.438 54.312 L 58.438 80.875 C 58.434 83.808 56.058 86.184 53.125 86.187 L 21.25 86.187 C 18.317 86.184 15.941 83.808 15.938 80.875 L 15.938 54.312 Z  M 53.125 112.75 L 34.531 112.75 L 34.531 107.437 C 34.531 105.97 33.342 104.781 31.875 104.781 C 30.408 104.781 29.219 105.97 29.219 107.437 L 29.219 112.75 L 21.25 112.75 L 21.25 104.781 C 21.25 103.314 22.439 102.125 23.906 102.125 L 50.469 102.125 C 51.936 102.125 53.125 103.314 53.125 104.781 L 53.125 112.75 Z  M 69.063 102.125 L 69.063 112.75 L 58.438 112.75 L 58.438 104.781 C 58.432 100.382 54.868 96.818 50.469 96.812 L 23.906 96.812 C 19.507 96.818 15.943 100.382 15.938 104.781 L 15.938 112.75 L 5.313 112.75 L 5.313 102.125 C 5.319 96.26 10.072 91.507 15.938 91.5 L 58.438 91.5 C 64.303 91.507 69.056 96.26 69.063 102.125 Z  M 47.813 70.25 C 52.214 70.25 55.781 66.682 55.781 62.281 C 55.781 57.88 52.214 54.312 47.813 54.312 C 43.411 54.312 39.844 57.88 39.844 62.281 C 39.844 64.395 40.683 66.422 42.178 67.916 C 43.672 69.411 45.699 70.25 47.813 70.25 L 47.813 70.25 Z  M 47.813 59.625 C 49.28 59.625 50.469 60.814 50.469 62.281 C 50.469 63.748 49.28 64.937 47.813 64.937 C 46.345 64.937 45.156 63.748 45.156 62.281 C 45.158 60.815 46.346 59.627 47.813 59.625 L 47.813 59.625 Z  M 26.563 70.25 C 30.964 70.25 34.531 66.682 34.531 62.281 C 34.531 57.88 30.964 54.312 26.563 54.312 C 22.161 54.312 18.594 57.88 18.594 62.281 C 18.594 64.395 19.433 66.422 20.928 67.916 C 22.422 69.411 24.449 70.25 26.563 70.25 L 26.563 70.25 Z  M 26.563 59.625 C 28.03 59.625 29.219 60.814 29.219 62.281 C 29.219 63.748 28.03 64.937 26.563 64.937 C 25.095 64.937 23.906 63.748 23.906 62.281 C 23.908 60.815 25.096 59.627 26.563 59.625 L 26.563 59.625 Z " fill="rgb(51,51,51)"/><path d=" M 102.375 0 C 86.909 0 74.375 10.183 74.375 22.75 C 74.375 28.175 76.716 33.141 80.609 37.045 C 79.242 42.558 74.67 47.469 74.616 47.523 C 74.375 47.775 74.309 48.147 74.452 48.475 C 74.594 48.803 74.9 49 75.25 49 C 82.502 49 87.938 45.522 90.628 43.378 C 94.205 44.723 98.175 45.5 102.375 45.5 C 117.841 45.5 130.375 35.317 130.375 22.75 C 130.375 10.183 117.841 0 102.375 0 Z  M 88.375 26.25 C 86.439 26.25 84.875 24.686 84.875 22.75 C 84.875 20.814 86.439 19.25 88.375 19.25 C 90.311 19.25 91.875 20.814 91.875 22.75 C 91.875 24.686 90.311 26.25 88.375 26.25 Z  M 102.375 26.25 C 100.439 26.25 98.875 24.686 98.875 22.75 C 98.875 20.814 100.439 19.25 102.375 19.25 C 104.311 19.25 105.875 20.814 105.875 22.75 C 105.875 24.686 104.311 26.25 102.375 26.25 Z  M 116.375 26.25 C 114.439 26.25 112.875 24.686 112.875 22.75 C 112.875 20.814 114.439 19.25 116.375 19.25 C 118.311 19.25 119.875 20.814 119.875 22.75 C 119.875 24.686 118.311 26.25 116.375 26.25 Z " fill="rgb(51,51,51)"/></g><path d=" M 795.941 86.835 L 795.941 86.835 Q 802.975 87.95 806.579 91.768 L 806.579 91.768 L 806.579 91.768 Q 810.182 95.585 810.182 101.934 L 810.182 101.934 L 810.182 101.934 Q 810.182 109.655 804.691 113.687 L 804.691 113.687 L 804.691 113.687 Q 799.201 117.719 788.305 117.719 L 788.305 117.719 L 762.225 117.719 L 762.225 57.666 L 786.589 57.666 L 786.589 57.666 Q 796.112 57.666 801.517 61.612 L 801.517 61.612 L 801.517 61.612 Q 806.922 65.558 806.922 72.936 L 806.922 72.936 L 806.922 72.936 Q 806.922 78.341 804.005 81.859 L 804.005 81.859 L 804.005 81.859 Q 801.088 85.376 795.941 86.835 L 795.941 86.835 Z  M 786.675 60.239 L 765.142 60.239 L 765.142 85.977 L 786.675 85.977 L 786.675 85.977 Q 794.997 85.977 799.544 82.674 L 799.544 82.674 L 799.544 82.674 Q 804.091 79.371 804.091 73.108 L 804.091 73.108 L 804.091 73.108 Q 804.091 66.845 799.544 63.542 L 799.544 63.542 L 799.544 63.542 Q 794.997 60.239 786.675 60.239 L 786.675 60.239 Z  M 788.477 115.146 L 788.477 115.146 Q 797.828 115.146 802.546 111.886 L 802.546 111.886 L 802.546 111.886 Q 807.265 108.626 807.265 101.848 L 807.265 101.848 L 807.265 101.848 Q 807.265 94.985 802.546 91.725 L 802.546 91.725 L 802.546 91.725 Q 797.828 88.465 788.477 88.465 L 788.477 88.465 L 765.142 88.465 L 765.142 115.146 L 788.477 115.146 Z  M 840.903 117.977 L 840.903 117.977 Q 834.726 117.977 829.707 115.103 L 829.707 115.103 L 829.707 115.103 Q 824.689 112.229 821.858 107.081 L 821.858 107.081 L 821.858 107.081 Q 819.026 101.934 819.026 95.414 L 819.026 95.414 L 819.026 95.414 Q 819.026 88.894 821.858 83.746 L 821.858 83.746 L 821.858 83.746 Q 824.689 78.599 829.707 75.725 L 829.707 75.725 L 829.707 75.725 Q 834.726 72.851 840.903 72.851 L 840.903 72.851 L 840.903 72.851 Q 847.166 72.851 852.142 75.725 L 852.142 75.725 L 852.142 75.725 Q 857.118 78.599 859.949 83.746 L 859.949 83.746 L 859.949 83.746 Q 862.78 88.894 862.78 95.414 L 862.78 95.414 L 862.78 95.414 Q 862.78 101.934 859.949 107.081 L 859.949 107.081 L 859.949 107.081 Q 857.118 112.229 852.142 115.103 L 852.142 115.103 L 852.142 115.103 Q 847.166 117.977 840.903 117.977 L 840.903 117.977 Z  M 840.903 115.403 L 840.903 115.403 Q 846.308 115.403 850.64 112.872 L 850.64 112.872 L 850.64 112.872 Q 854.973 110.341 857.461 105.794 L 857.461 105.794 L 857.461 105.794 Q 859.949 101.247 859.949 95.414 L 859.949 95.414 L 859.949 95.414 Q 859.949 89.58 857.461 85.076 L 857.461 85.076 L 857.461 85.076 Q 854.973 80.572 850.64 78.041 L 850.64 78.041 L 850.64 78.041 Q 846.308 75.51 840.903 75.51 L 840.903 75.51 L 840.903 75.51 Q 835.498 75.51 831.166 78.041 L 831.166 78.041 L 831.166 78.041 Q 826.833 80.572 824.345 85.076 L 824.345 85.076 L 824.345 85.076 Q 821.858 89.58 821.858 95.414 L 821.858 95.414 L 821.858 95.414 Q 821.858 101.247 824.345 105.794 L 824.345 105.794 L 824.345 105.794 Q 826.833 110.341 831.166 112.872 L 831.166 112.872 L 831.166 112.872 Q 835.498 115.403 840.903 115.403 L 840.903 115.403 Z  M 895.303 112.829 L 896.761 114.888 L 896.761 114.888 Q 895.217 116.347 892.815 117.162 L 892.815 117.162 L 892.815 117.162 Q 890.413 117.977 887.839 117.977 L 887.839 117.977 L 887.839 117.977 Q 882.434 117.977 879.474 114.931 L 879.474 114.931 L 879.474 114.931 Q 876.514 111.886 876.514 106.567 L 876.514 106.567 L 876.514 75.682 L 868.107 75.682 L 868.107 73.194 L 876.514 73.194 L 876.514 63.414 L 879.346 63.414 L 879.346 73.194 L 894.016 73.194 L 894.016 75.682 L 879.346 75.682 L 879.346 106.138 L 879.346 106.138 Q 879.346 110.684 881.576 113.087 L 881.576 113.087 L 881.576 113.087 Q 883.807 115.489 888.096 115.489 L 888.096 115.489 L 888.096 115.489 Q 892.386 115.489 895.303 112.829 L 895.303 112.829 Z  M 538.511 118.063 L 538.511 118.063 Q 529.76 118.063 522.682 114.116 L 522.682 114.116 L 522.682 114.116 Q 515.604 110.17 511.572 103.221 L 511.572 103.221 L 511.572 103.221 Q 507.54 96.272 507.54 87.693 L 507.54 87.693 L 507.54 87.693 Q 507.54 79.113 511.572 72.164 L 511.572 72.164 L 511.572 72.164 Q 515.604 65.215 522.682 61.269 L 522.682 61.269 L 522.682 61.269 Q 529.76 57.323 538.511 57.323 L 538.511 57.323 L 538.511 57.323 Q 544.688 57.323 550.092 59.339 L 550.092 59.339 L 550.092 59.339 Q 555.497 61.355 559.358 65.301 L 559.358 65.301 L 557.556 67.189 L 557.556 67.189 Q 550.092 59.982 538.596 59.982 L 538.596 59.982 L 538.596 59.982 Q 530.704 59.982 524.269 63.628 L 524.269 63.628 L 524.269 63.628 Q 517.835 67.274 514.146 73.623 L 514.146 73.623 L 514.146 73.623 Q 510.457 79.971 510.457 87.693 L 510.457 87.693 L 510.457 87.693 Q 510.457 95.414 514.146 101.762 L 514.146 101.762 L 514.146 101.762 Q 517.835 108.111 524.269 111.757 L 524.269 111.757 L 524.269 111.757 Q 530.704 115.403 538.596 115.403 L 538.596 115.403 L 538.596 115.403 Q 550.007 115.403 557.556 108.111 L 557.556 108.111 L 559.358 109.998 L 559.358 109.998 Q 555.497 113.945 550.135 116.004 L 550.135 116.004 L 550.135 116.004 Q 544.773 118.063 538.511 118.063 L 538.511 118.063 Z  M 572.32 117.719 L 572.32 73.194 L 575.152 73.194 L 575.152 117.719 L 572.32 117.719 Z  M 573.693 61.526 L 573.693 61.526 Q 572.578 61.526 571.72 60.711 L 571.72 60.711 L 571.72 60.711 Q 570.862 59.896 570.862 58.781 L 570.862 58.781 L 570.862 58.781 Q 570.862 57.58 571.677 56.765 L 571.677 56.765 L 571.677 56.765 Q 572.492 55.95 573.693 55.95 L 573.693 55.95 L 573.693 55.95 Q 574.808 55.95 575.666 56.765 L 575.666 56.765 L 575.666 56.765 Q 576.524 57.58 576.524 58.695 L 576.524 58.695 L 576.524 58.695 Q 576.524 59.81 575.666 60.668 L 575.666 60.668 L 575.666 60.668 Q 574.808 61.526 573.693 61.526 L 573.693 61.526 Z  M 595.921 83.918 L 595.921 83.918 Q 597.894 78.599 602.313 75.725 L 602.313 75.725 L 602.313 75.725 Q 606.731 72.851 613.251 72.851 L 613.251 72.851 L 613.251 75.682 L 612.479 75.682 L 612.479 75.682 Q 604.758 75.682 600.382 80.572 L 600.382 80.572 L 600.382 80.572 Q 596.007 85.462 596.007 94.041 L 596.007 94.041 L 596.007 117.719 L 593.176 117.719 L 593.176 73.194 L 595.921 73.194 L 595.921 83.918 Z  M 641.313 117.977 L 641.313 117.977 Q 634.964 117.977 629.945 115.103 L 629.945 115.103 L 629.945 115.103 Q 624.927 112.229 622.053 107.081 L 622.053 107.081 L 622.053 107.081 Q 619.179 101.934 619.179 95.414 L 619.179 95.414 L 619.179 95.414 Q 619.179 88.894 622.053 83.746 L 622.053 83.746 L 622.053 83.746 Q 624.927 78.599 629.945 75.725 L 629.945 75.725 L 629.945 75.725 Q 634.964 72.851 641.313 72.851 L 641.313 72.851 L 641.313 72.851 Q 646.374 72.851 650.707 74.781 L 650.707 74.781 L 650.707 74.781 Q 655.039 76.711 657.785 80.486 L 657.785 80.486 L 655.64 82.288 L 655.64 82.288 Q 653.238 78.942 649.506 77.226 L 649.506 77.226 L 649.506 77.226 Q 645.774 75.51 641.313 75.51 L 641.313 75.51 L 641.313 75.51 Q 635.822 75.51 631.404 78.041 L 631.404 78.041 L 631.404 78.041 Q 626.986 80.572 624.498 85.076 L 624.498 85.076 L 624.498 85.076 Q 622.01 89.58 622.01 95.414 L 622.01 95.414 L 622.01 95.414 Q 622.01 101.247 624.498 105.794 L 624.498 105.794 L 624.498 105.794 Q 626.986 110.341 631.404 112.872 L 631.404 112.872 L 631.404 112.872 Q 635.822 115.403 641.313 115.403 L 641.313 115.403 L 641.313 115.403 Q 645.774 115.403 649.506 113.687 L 649.506 113.687 L 649.506 113.687 Q 653.238 111.971 655.64 108.626 L 655.64 108.626 L 657.785 110.341 L 657.785 110.341 Q 655.039 114.116 650.707 116.046 L 650.707 116.046 L 650.707 116.046 Q 646.374 117.977 641.313 117.977 L 641.313 117.977 Z  M 669.546 117.719 L 669.546 54.062 L 672.377 54.062 L 672.377 117.719 L 669.546 117.719 Z  M 727.12 95.071 L 727.12 95.843 L 688.085 95.843 L 688.085 95.843 Q 688.171 101.505 690.745 105.966 L 690.745 105.966 L 690.745 105.966 Q 693.318 110.427 697.822 112.915 L 697.822 112.915 L 697.822 112.915 Q 702.326 115.403 707.903 115.403 L 707.903 115.403 L 707.903 115.403 Q 712.45 115.403 716.31 113.73 L 716.31 113.73 L 716.31 113.73 Q 720.171 112.057 722.659 108.797 L 722.659 108.797 L 724.46 110.684 L 724.46 110.684 Q 721.458 114.202 717.168 116.089 L 717.168 116.089 L 717.168 116.089 Q 712.879 117.977 707.903 117.977 L 707.903 117.977 L 707.903 117.977 Q 701.383 117.977 696.278 115.103 L 696.278 115.103 L 696.278 115.103 Q 691.173 112.229 688.257 107.081 L 688.257 107.081 L 688.257 107.081 Q 685.34 101.934 685.34 95.414 L 685.34 95.414 L 685.34 95.414 Q 685.34 88.894 688.042 83.746 L 688.042 83.746 L 688.042 83.746 Q 690.745 78.599 695.549 75.725 L 695.549 75.725 L 695.549 75.725 Q 700.353 72.851 706.273 72.851 L 706.273 72.851 L 706.273 72.851 Q 712.106 72.851 716.868 75.682 L 716.868 75.682 L 716.868 75.682 Q 721.629 78.513 724.375 83.575 L 724.375 83.575 L 724.375 83.575 Q 727.12 88.636 727.12 95.071 L 727.12 95.071 Z  M 706.273 75.424 L 706.273 75.424 Q 701.297 75.424 697.265 77.741 L 697.265 77.741 L 697.265 77.741 Q 693.232 80.057 690.83 84.218 L 690.83 84.218 L 690.83 84.218 Q 688.428 88.379 688.171 93.526 L 688.171 93.526 L 724.46 93.526 L 724.46 93.526 Q 724.117 88.379 721.672 84.218 L 721.672 84.218 L 721.672 84.218 Q 719.227 80.057 715.238 77.741 L 715.238 77.741 L 715.238 77.741 Q 711.249 75.424 706.273 75.424 L 706.273 75.424 Z  M 274.14 117.719 L 274.14 57.666 L 277.057 57.666 L 277.057 117.719 L 274.14 117.719 Z  M 317.558 72.851 L 317.558 72.851 Q 325.88 72.851 330.684 77.698 L 330.684 77.698 L 330.684 77.698 Q 335.489 82.545 335.489 91.553 L 335.489 91.553 L 335.489 117.719 L 332.657 117.719 L 332.657 91.725 L 332.657 91.725 Q 332.657 83.832 328.668 79.671 L 328.668 79.671 L 328.668 79.671 Q 324.679 75.51 317.301 75.51 L 317.301 75.51 L 317.301 75.51 Q 308.979 75.51 304.175 80.443 L 304.175 80.443 L 304.175 80.443 Q 299.371 85.376 299.371 93.698 L 299.371 93.698 L 299.371 117.719 L 296.54 117.719 L 296.54 73.194 L 299.285 73.194 L 299.285 84.089 L 299.285 84.089 Q 301.43 78.856 306.191 75.853 L 306.191 75.853 L 306.191 75.853 Q 310.952 72.851 317.558 72.851 L 317.558 72.851 Z  M 374.017 72.851 L 374.017 72.851 Q 382.339 72.851 387.143 77.698 L 387.143 77.698 L 387.143 77.698 Q 391.947 82.545 391.947 91.553 L 391.947 91.553 L 391.947 117.719 L 389.116 117.719 L 389.116 91.725 L 389.116 91.725 Q 389.116 83.832 385.127 79.671 L 385.127 79.671 L 385.127 79.671 Q 381.137 75.51 373.759 75.51 L 373.759 75.51 L 373.759 75.51 Q 365.438 75.51 360.633 80.443 L 360.633 80.443 L 360.633 80.443 Q 355.829 85.376 355.829 93.698 L 355.829 93.698 L 355.829 117.719 L 352.998 117.719 L 352.998 73.194 L 355.743 73.194 L 355.743 84.089 L 355.743 84.089 Q 357.888 78.856 362.65 75.853 L 362.65 75.853 L 362.65 75.853 Q 367.411 72.851 374.017 72.851 L 374.017 72.851 Z  M 446.261 95.071 L 446.261 95.843 L 407.226 95.843 L 407.226 95.843 Q 407.312 101.505 409.886 105.966 L 409.886 105.966 L 409.886 105.966 Q 412.459 110.427 416.963 112.915 L 416.963 112.915 L 416.963 112.915 Q 421.467 115.403 427.044 115.403 L 427.044 115.403 L 427.044 115.403 Q 431.591 115.403 435.451 113.73 L 435.451 113.73 L 435.451 113.73 Q 439.312 112.057 441.8 108.797 L 441.8 108.797 L 443.601 110.684 L 443.601 110.684 Q 440.599 114.202 436.309 116.089 L 436.309 116.089 L 436.309 116.089 Q 432.02 117.977 427.044 117.977 L 427.044 117.977 L 427.044 117.977 Q 420.524 117.977 415.419 115.103 L 415.419 115.103 L 415.419 115.103 Q 410.315 112.229 407.398 107.081 L 407.398 107.081 L 407.398 107.081 Q 404.481 101.934 404.481 95.414 L 404.481 95.414 L 404.481 95.414 Q 404.481 88.894 407.183 83.746 L 407.183 83.746 L 407.183 83.746 Q 409.886 78.599 414.69 75.725 L 414.69 75.725 L 414.69 75.725 Q 419.494 72.851 425.414 72.851 L 425.414 72.851 L 425.414 72.851 Q 431.248 72.851 436.009 75.682 L 436.009 75.682 L 436.009 75.682 Q 440.77 78.513 443.516 83.575 L 443.516 83.575 L 443.516 83.575 Q 446.261 88.636 446.261 95.071 L 446.261 95.071 Z  M 425.414 75.424 L 425.414 75.424 Q 420.438 75.424 416.406 77.741 L 416.406 77.741 L 416.406 77.741 Q 412.374 80.057 409.971 84.218 L 409.971 84.218 L 409.971 84.218 Q 407.569 88.379 407.312 93.526 L 407.312 93.526 L 443.601 93.526 L 443.601 93.526 Q 443.258 88.379 440.813 84.218 L 440.813 84.218 L 440.813 84.218 Q 438.368 80.057 434.379 77.741 L 434.379 77.741 L 434.379 77.741 Q 430.39 75.424 425.414 75.424 L 425.414 75.424 Z  M 461.969 83.918 L 461.969 83.918 Q 463.942 78.599 468.36 75.725 L 468.36 75.725 L 468.36 75.725 Q 472.779 72.851 479.299 72.851 L 479.299 72.851 L 479.299 75.682 L 478.526 75.682 L 478.526 75.682 Q 470.805 75.682 466.43 80.572 L 466.43 80.572 L 466.43 80.572 Q 462.055 85.462 462.055 94.041 L 462.055 94.041 L 462.055 117.719 L 459.224 117.719 L 459.224 73.194 L 461.969 73.194 L 461.969 83.918 Z  M 112.048 117.719 L 112.048 60.325 L 90 60.325 L 90 57.666 L 136.928 57.666 L 136.928 60.325 L 114.879 60.325 L 114.879 117.719 L 112.048 117.719 Z  M 166.791 72.851 L 166.791 72.851 Q 175.113 72.851 179.917 77.698 L 179.917 77.698 L 179.917 77.698 Q 184.721 82.545 184.721 91.553 L 184.721 91.553 L 184.721 117.719 L 181.89 117.719 L 181.89 91.725 L 181.89 91.725 Q 181.89 83.832 177.901 79.671 L 177.901 79.671 L 177.901 79.671 Q 173.912 75.51 166.534 75.51 L 166.534 75.51 L 166.534 75.51 Q 158.212 75.51 153.408 80.443 L 153.408 80.443 L 153.408 80.443 Q 148.603 85.376 148.603 93.698 L 148.603 93.698 L 148.603 117.719 L 145.772 117.719 L 145.772 54.062 L 148.603 54.062 L 148.603 83.832 L 148.603 83.832 Q 150.834 78.684 155.552 75.768 L 155.552 75.768 L 155.552 75.768 Q 160.271 72.851 166.791 72.851 L 166.791 72.851 Z  M 239.035 95.071 L 239.035 95.843 L 200 95.843 L 200 95.843 Q 200.086 101.505 202.66 105.966 L 202.66 105.966 L 202.66 105.966 Q 205.233 110.427 209.738 112.915 L 209.738 112.915 L 209.738 112.915 Q 214.242 115.403 219.818 115.403 L 219.818 115.403 L 219.818 115.403 Q 224.365 115.403 228.225 113.73 L 228.225 113.73 L 228.225 113.73 Q 232.086 112.057 234.574 108.797 L 234.574 108.797 L 236.376 110.684 L 236.376 110.684 Q 233.373 114.202 229.083 116.089 L 229.083 116.089 L 229.083 116.089 Q 224.794 117.977 219.818 117.977 L 219.818 117.977 L 219.818 117.977 Q 213.298 117.977 208.193 115.103 L 208.193 115.103 L 208.193 115.103 Q 203.089 112.229 200.172 107.081 L 200.172 107.081 L 200.172 107.081 Q 197.255 101.934 197.255 95.414 L 197.255 95.414 L 197.255 95.414 Q 197.255 88.894 199.957 83.746 L 199.957 83.746 L 199.957 83.746 Q 202.66 78.599 207.464 75.725 L 207.464 75.725 L 207.464 75.725 Q 212.268 72.851 218.188 72.851 L 218.188 72.851 L 218.188 72.851 Q 224.022 72.851 228.783 75.682 L 228.783 75.682 L 228.783 75.682 Q 233.544 78.513 236.29 83.575 L 236.29 83.575 L 236.29 83.575 Q 239.035 88.636 239.035 95.071 L 239.035 95.071 Z  M 218.188 75.424 L 218.188 75.424 Q 213.212 75.424 209.18 77.741 L 209.18 77.741 L 209.18 77.741 Q 205.148 80.057 202.746 84.218 L 202.746 84.218 L 202.746 84.218 Q 200.343 88.379 200.086 93.526 L 200.086 93.526 L 236.376 93.526 L 236.376 93.526 Q 236.032 88.379 233.587 84.218 L 233.587 84.218 L 233.587 84.218 Q 231.142 80.057 227.153 77.741 L 227.153 77.741 L 227.153 77.741 Q 223.164 75.424 218.188 75.424 L 218.188 75.424 Z " fill="rgb(0,0,0)"/></svg>