<?xml version="1.0" encoding="UTF-8" standalone="no"?><!-- Generator: Gravit.io --><svg xmlns="http://www.w3.org/2000/svg" xmlns:xlink="http://www.w3.org/1999/xlink" style="isolation:isolate" viewBox="594 456.75 833.022 117.25" width="833.022pt" height="117.25pt"><path d=" M 1334.2 545.82 L 1334.2 545.82 Q 1340.548 546.827 1343.8 550.272 L 1343.8 550.272 L 1343.8 550.272 Q 1347.051 553.717 1347.051 559.446 L 1347.051 559.446 L 1347.051 559.446 Q 1347.051 566.413 1342.096 570.052 L 1342.096 570.052 L 1342.096 570.052 Q 1337.142 573.69 1327.31 573.69 L 1327.31 573.69 L 1303.775 573.69 L 1303.775 519.499 L 1325.761 519.499 L 1325.761 519.499 Q 1334.355 519.499 1339.232 523.06 L 1339.232 523.06 L 1339.232 523.06 Q 1344.109 526.621 1344.109 533.279 L 1344.109 533.279 L 1344.109 533.279 Q 1344.109 538.156 1341.477 541.33 L 1341.477 541.33 L 1341.477 541.33 Q 1338.845 544.504 1334.2 545.82 L 1334.2 545.82 Z  M 1325.839 521.821 L 1306.407 521.821 L 1306.407 545.046 L 1325.839 545.046 L 1325.839 545.046 Q 1333.348 545.046 1337.451 542.066 L 1337.451 542.066 L 1337.451 542.066 Q 1341.554 539.085 1341.554 533.434 L 1341.554 533.434 L 1341.554 533.434 Q 1341.554 527.782 1337.451 524.802 L 1337.451 524.802 L 1337.451 524.802 Q 1333.348 521.821 1325.839 521.821 L 1325.839 521.821 Z  M 1327.465 571.368 L 1327.465 571.368 Q 1335.903 571.368 1340.161 568.426 L 1340.161 568.426 L 1340.161 568.426 Q 1344.419 565.484 1344.419 559.368 L 1344.419 559.368 L 1344.419 559.368 Q 1344.419 553.175 1340.161 550.233 L 1340.161 550.233 L 1340.161 550.233 Q 1335.903 547.291 1327.465 547.291 L 1327.465 547.291 L 1306.407 547.291 L 1306.407 571.368 L 1327.465 571.368 Z  M 1375.695 573.923 L 1375.695 573.923 Q 1370.121 573.923 1365.592 571.329 L 1365.592 571.329 L 1365.592 571.329 Q 1361.063 568.736 1358.509 564.091 L 1358.509 564.091 L 1358.509 564.091 Q 1355.954 559.446 1355.954 553.562 L 1355.954 553.562 L 1355.954 553.562 Q 1355.954 547.678 1358.509 543.033 L 1358.509 543.033 L 1358.509 543.033 Q 1361.063 538.388 1365.592 535.795 L 1365.592 535.795 L 1365.592 535.795 Q 1370.121 533.201 1375.695 533.201 L 1375.695 533.201 L 1375.695 533.201 Q 1381.347 533.201 1385.837 535.795 L 1385.837 535.795 L 1385.837 535.795 Q 1390.327 538.388 1392.882 543.033 L 1392.882 543.033 L 1392.882 543.033 Q 1395.436 547.678 1395.436 553.562 L 1395.436 553.562 L 1395.436 553.562 Q 1395.436 559.446 1392.882 564.091 L 1392.882 564.091 L 1392.882 564.091 Q 1390.327 568.736 1385.837 571.329 L 1385.837 571.329 L 1385.837 571.329 Q 1381.347 573.923 1375.695 573.923 L 1375.695 573.923 Z  M 1375.695 571.6 L 1375.695 571.6 Q 1380.572 571.6 1384.482 569.316 L 1384.482 569.316 L 1384.482 569.316 Q 1388.391 567.033 1390.637 562.929 L 1390.637 562.929 L 1390.637 562.929 Q 1392.882 558.826 1392.882 553.562 L 1392.882 553.562 L 1392.882 553.562 Q 1392.882 548.298 1390.637 544.233 L 1390.637 544.233 L 1390.637 544.233 Q 1388.391 540.169 1384.482 537.885 L 1384.482 537.885 L 1384.482 537.885 Q 1380.572 535.601 1375.695 535.601 L 1375.695 535.601 L 1375.695 535.601 Q 1370.818 535.601 1366.908 537.885 L 1366.908 537.885 L 1366.908 537.885 Q 1362.999 540.169 1360.754 544.233 L 1360.754 544.233 L 1360.754 544.233 Q 1358.509 548.298 1358.509 553.562 L 1358.509 553.562 L 1358.509 553.562 Q 1358.509 558.826 1360.754 562.929 L 1360.754 562.929 L 1360.754 562.929 Q 1362.999 567.033 1366.908 569.316 L 1366.908 569.316 L 1366.908 569.316 Q 1370.818 571.6 1375.695 571.6 L 1375.695 571.6 Z  M 1425.706 569.278 L 1427.022 571.136 L 1427.022 571.136 Q 1425.629 572.452 1423.461 573.187 L 1423.461 573.187 L 1423.461 573.187 Q 1421.294 573.923 1418.971 573.923 L 1418.971 573.923 L 1418.971 573.923 Q 1414.094 573.923 1411.423 571.174 L 1411.423 571.174 L 1411.423 571.174 Q 1408.752 568.426 1408.752 563.626 L 1408.752 563.626 L 1408.752 535.756 L 1401.165 535.756 L 1401.165 533.511 L 1408.752 533.511 L 1408.752 524.686 L 1411.307 524.686 L 1411.307 533.511 L 1424.545 533.511 L 1424.545 535.756 L 1411.307 535.756 L 1411.307 563.239 L 1411.307 563.239 Q 1411.307 567.342 1413.32 569.51 L 1413.32 569.51 L 1413.32 569.51 Q 1415.333 571.677 1419.203 571.677 L 1419.203 571.677 L 1419.203 571.677 Q 1423.074 571.677 1425.706 569.278 L 1425.706 569.278 Z  M 1095.447 574 L 1095.447 574 Q 1087.55 574 1081.164 570.439 L 1081.164 570.439 L 1081.164 570.439 Q 1074.777 566.878 1071.138 560.607 L 1071.138 560.607 L 1071.138 560.607 Q 1067.499 554.336 1067.499 546.595 L 1067.499 546.595 L 1067.499 546.595 Q 1067.499 538.853 1071.138 532.582 L 1071.138 532.582 L 1071.138 532.582 Q 1074.777 526.311 1081.164 522.75 L 1081.164 522.75 L 1081.164 522.75 Q 1087.55 519.189 1095.447 519.189 L 1095.447 519.189 L 1095.447 519.189 Q 1101.021 519.189 1105.898 521.008 L 1105.898 521.008 L 1105.898 521.008 Q 1110.775 522.828 1114.259 526.389 L 1114.259 526.389 L 1112.633 528.092 L 1112.633 528.092 Q 1105.898 521.589 1095.524 521.589 L 1095.524 521.589 L 1095.524 521.589 Q 1088.402 521.589 1082.596 524.879 L 1082.596 524.879 L 1082.596 524.879 Q 1076.789 528.169 1073.461 533.898 L 1073.461 533.898 L 1073.461 533.898 Q 1070.132 539.627 1070.132 546.595 L 1070.132 546.595 L 1070.132 546.595 Q 1070.132 553.562 1073.461 559.291 L 1073.461 559.291 L 1073.461 559.291 Q 1076.789 565.02 1082.596 568.31 L 1082.596 568.31 L 1082.596 568.31 Q 1088.402 571.6 1095.524 571.6 L 1095.524 571.6 L 1095.524 571.6 Q 1105.821 571.6 1112.633 565.02 L 1112.633 565.02 L 1114.259 566.723 L 1114.259 566.723 Q 1110.775 570.284 1105.937 572.142 L 1105.937 572.142 L 1105.937 572.142 Q 1101.098 574 1095.447 574 L 1095.447 574 Z  M 1126.878 573.69 L 1126.878 533.511 L 1129.433 533.511 L 1129.433 573.69 L 1126.878 573.69 Z  M 1128.117 522.982 L 1128.117 522.982 Q 1127.11 522.982 1126.336 522.247 L 1126.336 522.247 L 1126.336 522.247 Q 1125.562 521.511 1125.562 520.505 L 1125.562 520.505 L 1125.562 520.505 Q 1125.562 519.421 1126.297 518.686 L 1126.297 518.686 L 1126.297 518.686 Q 1127.033 517.95 1128.117 517.95 L 1128.117 517.95 L 1128.117 517.95 Q 1129.123 517.95 1129.897 518.686 L 1129.897 518.686 L 1129.897 518.686 Q 1130.671 519.421 1130.671 520.428 L 1130.671 520.428 L 1130.671 520.428 Q 1130.671 521.434 1129.897 522.208 L 1129.897 522.208 L 1129.897 522.208 Q 1129.123 522.982 1128.117 522.982 L 1128.117 522.982 Z  M 1149.097 543.188 L 1149.097 543.188 Q 1150.877 538.388 1154.864 535.795 L 1154.864 535.795 L 1154.864 535.795 Q 1158.851 533.201 1164.735 533.201 L 1164.735 533.201 L 1164.735 535.756 L 1164.038 535.756 L 1164.038 535.756 Q 1157.071 535.756 1153.122 540.169 L 1153.122 540.169 L 1153.122 540.169 Q 1149.174 544.582 1149.174 552.323 L 1149.174 552.323 L 1149.174 573.69 L 1146.619 573.69 L 1146.619 533.511 L 1149.097 533.511 L 1149.097 543.188 Z  M 1190.979 573.923 L 1190.979 573.923 Q 1185.25 573.923 1180.721 571.329 L 1180.721 571.329 L 1180.721 571.329 Q 1176.192 568.736 1173.599 564.091 L 1173.599 564.091 L 1173.599 564.091 Q 1171.005 559.446 1171.005 553.562 L 1171.005 553.562 L 1171.005 553.562 Q 1171.005 547.678 1173.599 543.033 L 1173.599 543.033 L 1173.599 543.033 Q 1176.192 538.388 1180.721 535.795 L 1180.721 535.795 L 1180.721 535.795 Q 1185.25 533.201 1190.979 533.201 L 1190.979 533.201 L 1190.979 533.201 Q 1195.547 533.201 1199.456 534.943 L 1199.456 534.943 L 1199.456 534.943 Q 1203.366 536.685 1205.843 540.091 L 1205.843 540.091 L 1203.908 541.717 L 1203.908 541.717 Q 1201.74 538.698 1198.372 537.15 L 1198.372 537.15 L 1198.372 537.15 Q 1195.005 535.601 1190.979 535.601 L 1190.979 535.601 L 1190.979 535.601 Q 1186.024 535.601 1182.037 537.885 L 1182.037 537.885 L 1182.037 537.885 Q 1178.05 540.169 1175.805 544.233 L 1175.805 544.233 L 1175.805 544.233 Q 1173.56 548.298 1173.56 553.562 L 1173.56 553.562 L 1173.56 553.562 Q 1173.56 558.826 1175.805 562.929 L 1175.805 562.929 L 1175.805 562.929 Q 1178.05 567.033 1182.037 569.316 L 1182.037 569.316 L 1182.037 569.316 Q 1186.024 571.6 1190.979 571.6 L 1190.979 571.6 L 1190.979 571.6 Q 1195.005 571.6 1198.372 570.052 L 1198.372 570.052 L 1198.372 570.052 Q 1201.74 568.503 1203.908 565.484 L 1203.908 565.484 L 1205.843 567.033 L 1205.843 567.033 Q 1203.366 570.439 1199.456 572.181 L 1199.456 572.181 L 1199.456 572.181 Q 1195.547 573.923 1190.979 573.923 L 1190.979 573.923 Z  M 1217.378 573.69 L 1217.378 516.247 L 1219.933 516.247 L 1219.933 573.69 L 1217.378 573.69 Z  M 1270.254 553.252 L 1270.254 553.949 L 1235.029 553.949 L 1235.029 553.949 Q 1235.107 559.059 1237.429 563.084 L 1237.429 563.084 L 1237.429 563.084 Q 1239.751 567.11 1243.816 569.355 L 1243.816 569.355 L 1243.816 569.355 Q 1247.88 571.6 1252.912 571.6 L 1252.912 571.6 L 1252.912 571.6 Q 1257.015 571.6 1260.499 570.09 L 1260.499 570.09 L 1260.499 570.09 Q 1263.983 568.581 1266.228 565.639 L 1266.228 565.639 L 1267.854 567.342 L 1267.854 567.342 Q 1265.144 570.516 1261.273 572.219 L 1261.273 572.219 L 1261.273 572.219 Q 1257.403 573.923 1252.912 573.923 L 1252.912 573.923 L 1252.912 573.923 Q 1247.029 573.923 1242.422 571.329 L 1242.422 571.329 L 1242.422 571.329 Q 1237.816 568.736 1235.184 564.091 L 1235.184 564.091 L 1235.184 564.091 Q 1232.552 559.446 1232.552 553.562 L 1232.552 553.562 L 1232.552 553.562 Q 1232.552 547.678 1234.99 543.033 L 1234.99 543.033 L 1234.99 543.033 Q 1237.429 538.388 1241.764 535.795 L 1241.764 535.795 L 1241.764 535.795 Q 1246.1 533.201 1251.441 533.201 L 1251.441 533.201 L 1251.441 533.201 Q 1256.706 533.201 1261.002 535.756 L 1261.002 535.756 L 1261.002 535.756 Q 1265.299 538.311 1267.776 542.879 L 1267.776 542.879 L 1267.776 542.879 Q 1270.254 547.446 1270.254 553.252 L 1270.254 553.252 Z  M 1251.441 535.524 L 1251.441 535.524 Q 1246.951 535.524 1243.313 537.614 L 1243.313 537.614 L 1243.313 537.614 Q 1239.674 539.704 1237.506 543.459 L 1237.506 543.459 L 1237.506 543.459 Q 1235.339 547.214 1235.107 551.859 L 1235.107 551.859 L 1267.854 551.859 L 1267.854 551.859 Q 1267.544 547.214 1265.338 543.459 L 1265.338 543.459 L 1265.338 543.459 Q 1263.131 539.704 1259.532 537.614 L 1259.532 537.614 L 1259.532 537.614 Q 1255.932 535.524 1251.441 535.524 L 1251.441 535.524 Z  M 851.352 573.69 L 851.352 519.499 L 853.984 519.499 L 853.984 573.69 L 851.352 573.69 Z  M 891.454 533.201 L 891.454 533.201 Q 898.963 533.201 903.299 537.575 L 903.299 537.575 L 903.299 537.575 Q 907.634 541.949 907.634 550.078 L 907.634 550.078 L 907.634 573.69 L 905.079 573.69 L 905.079 550.233 L 905.079 550.233 Q 905.079 543.111 901.479 539.356 L 901.479 539.356 L 901.479 539.356 Q 897.88 535.601 891.222 535.601 L 891.222 535.601 L 891.222 535.601 Q 883.712 535.601 879.377 540.053 L 879.377 540.053 L 879.377 540.053 Q 875.042 544.504 875.042 552.014 L 875.042 552.014 L 875.042 573.69 L 872.487 573.69 L 872.487 533.511 L 874.964 533.511 L 874.964 543.343 L 874.964 543.343 Q 876.9 538.621 881.196 535.911 L 881.196 535.911 L 881.196 535.911 Q 885.493 533.201 891.454 533.201 L 891.454 533.201 Z  M 943.323 533.201 L 943.323 533.201 Q 950.833 533.201 955.168 537.575 L 955.168 537.575 L 955.168 537.575 Q 959.503 541.949 959.503 550.078 L 959.503 550.078 L 959.503 573.69 L 956.948 573.69 L 956.948 550.233 L 956.948 550.233 Q 956.948 543.111 953.349 539.356 L 953.349 539.356 L 953.349 539.356 Q 949.749 535.601 943.091 535.601 L 943.091 535.601 L 943.091 535.601 Q 935.581 535.601 931.246 540.053 L 931.246 540.053 L 931.246 540.053 Q 926.911 544.504 926.911 552.014 L 926.911 552.014 L 926.911 573.69 L 924.356 573.69 L 924.356 533.511 L 926.833 533.511 L 926.833 543.343 L 926.833 543.343 Q 928.769 538.621 933.065 535.911 L 933.065 535.911 L 933.065 535.911 Q 937.362 533.201 943.323 533.201 L 943.323 533.201 Z  M 1009.437 553.252 L 1009.437 553.949 L 974.212 553.949 L 974.212 553.949 Q 974.29 559.059 976.612 563.084 L 976.612 563.084 L 976.612 563.084 Q 978.935 567.11 982.999 569.355 L 982.999 569.355 L 982.999 569.355 Q 987.064 571.6 992.096 571.6 L 992.096 571.6 L 992.096 571.6 Q 996.199 571.6 999.682 570.09 L 999.682 570.09 L 999.682 570.09 Q 1003.166 568.581 1005.411 565.639 L 1005.411 565.639 L 1007.037 567.342 L 1007.037 567.342 Q 1004.327 570.516 1000.457 572.219 L 1000.457 572.219 L 1000.457 572.219 Q 996.586 573.923 992.096 573.923 L 992.096 573.923 L 992.096 573.923 Q 986.212 573.923 981.606 571.329 L 981.606 571.329 L 981.606 571.329 Q 976.999 568.736 974.367 564.091 L 974.367 564.091 L 974.367 564.091 Q 971.735 559.446 971.735 553.562 L 971.735 553.562 L 971.735 553.562 Q 971.735 547.678 974.174 543.033 L 974.174 543.033 L 974.174 543.033 Q 976.612 538.388 980.948 535.795 L 980.948 535.795 L 980.948 535.795 Q 985.283 533.201 990.625 533.201 L 990.625 533.201 L 990.625 533.201 Q 995.889 533.201 1000.186 535.756 L 1000.186 535.756 L 1000.186 535.756 Q 1004.482 538.311 1006.96 542.879 L 1006.96 542.879 L 1006.96 542.879 Q 1009.437 547.446 1009.437 553.252 L 1009.437 553.252 Z  M 990.625 535.524 L 990.625 535.524 Q 986.135 535.524 982.496 537.614 L 982.496 537.614 L 982.496 537.614 Q 978.857 539.704 976.69 543.459 L 976.69 543.459 L 976.69 543.459 Q 974.522 547.214 974.29 551.859 L 974.29 551.859 L 1007.037 551.859 L 1007.037 551.859 Q 1006.727 547.214 1004.521 543.459 L 1004.521 543.459 L 1004.521 543.459 Q 1002.315 539.704 998.715 537.614 L 998.715 537.614 L 998.715 537.614 Q 995.115 535.524 990.625 535.524 L 990.625 535.524 Z  M 1024.533 543.188 L 1024.533 543.188 Q 1026.314 538.388 1030.301 535.795 L 1030.301 535.795 L 1030.301 535.795 Q 1034.288 533.201 1040.171 533.201 L 1040.171 533.201 L 1040.171 535.756 L 1039.475 535.756 L 1039.475 535.756 Q 1032.507 535.756 1028.559 540.169 L 1028.559 540.169 L 1028.559 540.169 Q 1024.611 544.582 1024.611 552.323 L 1024.611 552.323 L 1024.611 573.69 L 1022.056 573.69 L 1022.056 533.511 L 1024.533 533.511 L 1024.533 543.188 Z  M 701.396 573.69 L 701.396 521.899 L 681.5 521.899 L 681.5 519.499 L 723.847 519.499 L 723.847 521.899 L 703.951 521.899 L 703.951 573.69 L 701.396 573.69 Z  M 751.717 533.201 L 751.717 533.201 Q 759.226 533.201 763.562 537.575 L 763.562 537.575 L 763.562 537.575 Q 767.897 541.949 767.897 550.078 L 767.897 550.078 L 767.897 573.69 L 765.342 573.69 L 765.342 550.233 L 765.342 550.233 Q 765.342 543.111 761.742 539.356 L 761.742 539.356 L 761.742 539.356 Q 758.142 535.601 751.485 535.601 L 751.485 535.601 L 751.485 535.601 Q 743.975 535.601 739.64 540.053 L 739.64 540.053 L 739.64 540.053 Q 735.305 544.504 735.305 552.014 L 735.305 552.014 L 735.305 573.69 L 732.75 573.69 L 732.75 516.247 L 735.305 516.247 L 735.305 543.111 L 735.305 543.111 Q 737.317 538.466 741.575 535.834 L 741.575 535.834 L 741.575 535.834 Q 745.833 533.201 751.717 533.201 L 751.717 533.201 Z  M 817.831 553.252 L 817.831 553.949 L 782.606 553.949 L 782.606 553.949 Q 782.684 559.059 785.006 563.084 L 785.006 563.084 L 785.006 563.084 Q 787.329 567.11 791.393 569.355 L 791.393 569.355 L 791.393 569.355 Q 795.457 571.6 800.489 571.6 L 800.489 571.6 L 800.489 571.6 Q 804.593 571.6 808.076 570.09 L 808.076 570.09 L 808.076 570.09 Q 811.56 568.581 813.805 565.639 L 813.805 565.639 L 815.431 567.342 L 815.431 567.342 Q 812.721 570.516 808.85 572.219 L 808.85 572.219 L 808.85 572.219 Q 804.98 573.923 800.489 573.923 L 800.489 573.923 L 800.489 573.923 Q 794.606 573.923 789.999 571.329 L 789.999 571.329 L 789.999 571.329 Q 785.393 568.736 782.761 564.091 L 782.761 564.091 L 782.761 564.091 Q 780.129 559.446 780.129 553.562 L 780.129 553.562 L 780.129 553.562 Q 780.129 547.678 782.567 543.033 L 782.567 543.033 L 782.567 543.033 Q 785.006 538.388 789.341 535.795 L 789.341 535.795 L 789.341 535.795 Q 793.677 533.201 799.018 533.201 L 799.018 533.201 L 799.018 533.201 Q 804.283 533.201 808.579 535.756 L 808.579 535.756 L 808.579 535.756 Q 812.876 538.311 815.353 542.879 L 815.353 542.879 L 815.353 542.879 Q 817.831 547.446 817.831 553.252 L 817.831 553.252 Z  M 799.018 535.524 L 799.018 535.524 Q 794.528 535.524 790.89 537.614 L 790.89 537.614 L 790.89 537.614 Q 787.251 539.704 785.084 543.459 L 785.084 543.459 L 785.084 543.459 Q 782.916 547.214 782.684 551.859 L 782.684 551.859 L 815.431 551.859 L 815.431 551.859 Q 815.121 547.214 812.915 543.459 L 812.915 543.459 L 812.915 543.459 Q 810.708 539.704 807.109 537.614 L 807.109 537.614 L 807.109 537.614 Q 803.509 535.524 799.018 535.524 L 799.018 535.524 Z " fill="rgb(51,51,51)"/><path d=" M 617.625 537.25 L 622.875 537.25 L 622.875 532 L 617.625 532 L 617.625 537.25 Z  M 638.625 537.25 L 643.875 537.25 L 643.875 532 L 638.625 532 L 638.625 537.25 Z  M 628.125 537.25 L 633.375 537.25 L 633.375 532 L 628.125 532 L 628.125 537.25 Z  M 636 560.875 C 634.55 560.875 633.375 562.05 633.375 563.5 C 633.375 564.95 634.55 566.125 636 566.125 C 637.45 566.125 638.625 564.95 638.625 563.5 C 638.625 562.804 638.348 562.136 637.856 561.644 C 637.364 561.152 636.696 560.875 636 560.875 L 636 560.875 Z  M 657 534.625 L 662.25 534.625 C 663.642 534.625 664.978 534.072 665.962 533.087 C 666.947 532.103 667.5 530.767 667.5 529.375 L 667.5 518.875 C 667.5 517.483 666.947 516.147 665.962 515.163 C 664.978 514.178 663.642 513.625 662.25 513.625 L 657 513.625 L 657 511 C 657 505.201 652.299 500.5 646.5 500.5 L 633.703 500.5 L 633.703 492.953 C 633.703 491.322 632.381 490 630.75 490 C 629.119 490 627.797 491.322 627.797 492.953 L 627.797 500.5 L 615 500.5 C 609.201 500.5 604.5 505.201 604.5 511 L 604.5 513.625 L 599.25 513.625 C 597.858 513.625 596.522 514.178 595.538 515.163 C 594.553 516.147 594 517.483 594 518.875 L 594 529.375 C 594 530.767 594.553 532.103 595.538 533.087 C 596.522 534.072 597.858 534.625 599.25 534.625 L 604.5 534.625 L 604.5 537.25 C 604.502 539.27 605.09 541.247 606.194 542.939 C 599.063 544.584 594.008 550.931 594 558.25 L 594 568.75 C 594 570.142 594.553 571.478 595.538 572.462 C 596.522 573.447 597.858 574 599.25 574 L 662.25 574 C 663.642 574 664.978 573.447 665.962 572.462 C 666.947 571.478 667.5 570.142 667.5 568.75 L 667.5 558.25 C 667.492 550.931 662.437 544.584 655.306 542.939 C 656.41 541.247 656.998 539.27 657 537.25 L 657 534.625 Z  M 657 518.875 L 662.25 518.875 L 662.25 529.375 L 657 529.375 L 657 518.875 Z  M 604.5 529.375 L 599.25 529.375 L 599.25 518.875 L 604.5 518.875 L 604.5 529.375 Z  M 609.75 511 C 609.753 508.102 612.102 505.753 615 505.75 L 646.5 505.75 C 649.398 505.753 651.747 508.102 651.75 511 L 651.75 537.25 C 651.747 540.148 649.398 542.497 646.5 542.5 L 615 542.5 C 612.102 542.497 609.753 540.148 609.75 537.25 L 609.75 511 Z  M 646.5 568.75 L 628.125 568.75 L 628.125 563.5 C 628.125 562.05 626.95 560.875 625.5 560.875 C 624.05 560.875 622.875 562.05 622.875 563.5 L 622.875 568.75 L 615 568.75 L 615 560.875 C 615 559.425 616.175 558.25 617.625 558.25 L 643.875 558.25 C 645.325 558.25 646.5 559.425 646.5 560.875 L 646.5 568.75 Z  M 662.25 558.25 L 662.25 568.75 L 651.75 568.75 L 651.75 560.875 C 651.745 556.528 648.222 553.005 643.875 553 L 617.625 553 C 613.278 553.005 609.755 556.528 609.75 560.875 L 609.75 568.75 L 599.25 568.75 L 599.25 558.25 C 599.257 552.454 603.954 547.757 609.75 547.75 L 651.75 547.75 C 657.546 547.757 662.243 552.454 662.25 558.25 Z  M 641.25 526.75 C 645.599 526.75 649.125 523.224 649.125 518.875 C 649.125 514.526 645.599 511 641.25 511 C 636.901 511 633.375 514.526 633.375 518.875 C 633.375 520.964 634.205 522.967 635.681 524.444 C 637.158 525.92 639.161 526.75 641.25 526.75 L 641.25 526.75 Z  M 641.25 516.25 C 642.7 516.25 643.875 517.425 643.875 518.875 C 643.875 520.325 642.7 521.5 641.25 521.5 C 639.8 521.5 638.625 520.325 638.625 518.875 C 638.627 517.426 639.801 516.252 641.25 516.25 L 641.25 516.25 Z  M 620.25 526.75 C 624.599 526.75 628.125 523.224 628.125 518.875 C 628.125 514.526 624.599 511 620.25 511 C 615.901 511 612.375 514.526 612.375 518.875 C 612.375 520.964 613.205 522.967 614.681 524.444 C 616.158 525.92 618.161 526.75 620.25 526.75 L 620.25 526.75 Z  M 620.25 516.25 C 621.7 516.25 622.875 517.425 622.875 518.875 C 622.875 520.325 621.7 521.5 620.25 521.5 C 618.8 521.5 617.625 520.325 617.625 518.875 C 617.627 517.426 618.801 516.252 620.25 516.25 L 620.25 516.25 Z " fill="rgb(51,51,51)"/><path d=" M 695.5 456.75 C 680.034 456.75 667.5 466.933 667.5 479.5 C 667.5 484.925 669.841 489.891 673.734 493.795 C 672.367 499.308 667.795 504.219 667.741 504.273 C 667.5 504.525 667.434 504.897 667.577 505.225 C 667.719 505.553 668.025 505.75 668.375 505.75 C 675.627 505.75 681.063 502.272 683.753 500.128 C 687.33 501.473 691.3 502.25 695.5 502.25 C 710.966 502.25 723.5 492.067 723.5 479.5 C 723.5 466.933 710.966 456.75 695.5 456.75 Z  M 681.5 483 C 679.564 483 678 481.436 678 479.5 C 678 477.564 679.564 476 681.5 476 C 683.436 476 685 477.564 685 479.5 C 685 481.436 683.436 483 681.5 483 Z  M 695.5 483 C 693.564 483 692 481.436 692 479.5 C 692 477.564 693.564 476 695.5 476 C 697.436 476 699 477.564 699 479.5 C 699 481.436 697.436 483 695.5 483 Z  M 709.5 483 C 707.564 483 706 481.436 706 479.5 C 706 477.564 707.564 476 709.5 476 C 711.436 476 713 477.564 713 479.5 C 713 481.436 711.436 483 709.5 483 Z " fill="rgb(51,51,51)"/></svg>